<svg width="45" height="45" viewBox="0 0 90 90" fill="none" xmlns="http://www.w3.org/2000/svg">
<rect width="90" height="90" rx="9" fill="#F33E3E"/>
<path d="M15 30H75" stroke="white" stroke-width="6"/>
<path d="M20 24H70" stroke="white" stroke-width="6"/>
<path d="M30 17V21.5C30 24.2614 32.2386 26.5 35 26.5H55C57.7614 26.5 60 24.2614 60 21.5V17C60 14.2386 57.7614 12 55 12H35C32.2386 12 30 14.2386 30 17Z" stroke="white" stroke-width="5"/>
<path d="M22 74V34C22 31.2386 24.2386 29 27 29H62C64.7614 29 67 31.2386 67 34V74C67 76.7614 64.7614 79 62 79H27C24.2386 79 22 76.7614 22 74Z" stroke="white" stroke-width="5"/>
<path d="M32 38V70.5" stroke="white" stroke-width="5"/>
<path d="M45 38V70.5" stroke="white" stroke-width="5"/>
<path d="M57 38V70.5" stroke="white" stroke-width="5"/>
</svg>
