<svg width="45" height="45" viewBox="0 0 90 90" fill="none" xmlns="http://www.w3.org/2000/svg">
<rect width="90" height="90" rx="9" fill="#C780FF"/>
<path d="M43.4081 12.7482L18.6912 39.2257C18.3109 39.6331 18.337 40.2727 18.7492 40.6477L33.9836 54.5085L58.7867 77.2921C59.2066 77.6778 59.8634 77.635 60.2296 77.1981L82.405 50.7437C82.7407 50.3432 82.7114 49.7517 82.3378 49.3863L44.8383 12.7156C44.4369 12.3231 43.7912 12.3378 43.4081 12.7482Z" stroke="white" stroke-width="5.5"/>
<path d="M39 59V51.5C39 49.8431 40.3431 48.5 42 48.5H46C47.6569 48.5 49 47.1569 49 45.5V42C49 40.3431 50.3431 39 52 39H55C56.6569 39 58 37.6569 58 36V25" stroke="white" stroke-width="4.5"/>
<path d="M6 51L16.4762 40L26 51H6Z" fill="white" stroke="white" stroke-width="4"/>
</svg>
