<?xml version="1.0" encoding="utf-8"?>
<svg xmlns="http://www.w3.org/2000/svg" xmlns:xlink="http://www.w3.org/1999/xlink" style="margin: auto; background: rgb(255, 255, 255); display: block; z-index: 1; position: relative; shape-rendering: auto;" width="2174" height="903" preserveAspectRatio="xMidYMid" viewBox="0 0 2174 903">
<g transform="translate(1087,451.5) scale(1,1) translate(-1087,-451.5)"><path id="path0" d="M 321.13108555149125 182.34795077353817
c 0 24.095582364523846 -5.895727599830302 6.921071530235572 -12.816799130065874 6.921071530235572
S 295.4974872913595 206.443533138062 295.4974872913595 182.34795077353817
s 5.895727599830302 -6.921071530235572 12.816799130065874 -6.921071530235572
S 321.13108555149125 158.25236840901434 321.13108555149125 182.34795077353817
z" fill="none" stroke="none"></path>
<circle cx="0" cy="0" r="4.220549224906507" fill="#e0ff77" opacity="0.9">
  <animateMotion begin="-7.2688402098078795s" dur="14.280000000000001s" repeatCount="indefinite">
    <mpath xlink:href="#path0"></mpath>
  </animateMotion>
</circle><path id="path1" d="M 1275.2523876391529 535.5114675266357
c 0 33.156834671018764 -8.112842525887569 9.523771660824538 -17.63661418671211 9.523771660824538
S 1239.9791592657289 568.6683021976544 1239.9791592657289 535.5114675266357
s 8.112842525887569 -9.523771660824538 17.63661418671211 -9.523771660824538
S 1275.2523876391529 502.3546328556169 1275.2523876391529 535.5114675266357
z" fill="none" stroke="none"></path>
<circle cx="0" cy="0" r="6.895832886788671" fill="#51cacc" opacity="0.9">
  <animateMotion begin="-9.22204887890597s" dur="14.280000000000001s" repeatCount="indefinite">
    <mpath xlink:href="#path1"></mpath>
  </animateMotion>
</circle><path id="path2" d="M 1522.697325692348 662.1274988672102
c 0 23.383632267454452 -5.721527044164386 6.716575225758193 -12.43810226992258 6.716575225758193
S 1497.8211211525027 685.5111311346647 1497.8211211525027 662.1274988672102
s 5.721527044164386 -6.716575225758193 12.43810226992258 -6.716575225758193
S 1522.697325692348 638.7438665997557 1522.697325692348 662.1274988672102
z" fill="none" stroke="none"></path>
<circle cx="0" cy="0" r="4.9141675102029385" fill="#ff708e" opacity="0.9">
  <animateMotion begin="-7.30199943616209s" dur="14.280000000000001s" repeatCount="indefinite">
    <mpath xlink:href="#path2"></mpath>
  </animateMotion>
</circle><path id="path3" d="M 1339.2492143006637 251.36544438706775
c 0 24.926254984343835 -6.098977283403278 7.159668984864719 -13.258646268267997 7.159668984864719
S 1312.7319217641277 276.2916993714116 1312.7319217641277 251.36544438706775
s 6.098977283403278 -7.159668984864719 13.258646268267997 -7.159668984864719
S 1339.2492143006637 226.4391894027239 1339.2492143006637 251.36544438706775
z" fill="none" stroke="none"></path>
<circle cx="0" cy="0" r="6.171590520706133" fill="#de9dd6" opacity="0.9">
  <animateMotion begin="-5.3999166571869175s" dur="14.280000000000001s" repeatCount="indefinite">
    <mpath xlink:href="#path3"></mpath>
  </animateMotion>
</circle><path id="path4" d="M 246.90228231945903 698.5648650203351
c 0 35.643009749888584 -8.72116196007912 10.237885779223317 -18.959047739302438 10.237885779223317
S 208.98418684085416 734.2078747702237 208.98418684085416 698.5648650203351
s 8.72116196007912 -10.237885779223317 18.959047739302438 -10.237885779223317
S 246.90228231945903 662.9218552704465 246.90228231945903 698.5648650203351
z" fill="none" stroke="none"></path>
<circle cx="0" cy="0" r="5.662891342870672" fill="#de9dd6" opacity="0.9">
  <animateMotion begin="-7.857227431441038s" dur="14.280000000000001s" repeatCount="indefinite">
    <mpath xlink:href="#path4"></mpath>
  </animateMotion>
</circle><path id="path5" d="M 1710.1039825777939 802.5575091105362
c 0 21.774939551842653 -5.327910741408308 6.254503913827145 -11.582414655235453 6.254503913827145
S 1686.939153267323 824.3324486623789 1686.939153267323 802.5575091105362
s 5.327910741408308 -6.254503913827145 11.582414655235453 -6.254503913827145
S 1710.1039825777939 780.7825695586936 1710.1039825777939 802.5575091105362
z" fill="none" stroke="none"></path>
<circle cx="0" cy="0" r="6.147272522777253" fill="#e0ff77" opacity="0.9">
  <animateMotion begin="-3.2272522103844286s" dur="14.280000000000001s" repeatCount="indefinite">
    <mpath xlink:href="#path5"></mpath>
  </animateMotion>
</circle><path id="path6" d="M 673.0978034260369 387.8744715997147
c 0 19.170667800825356 -4.690695312967906 5.506468410875368 -10.197163723843275 5.506468410875368
S 652.7034759783504 407.04513940054005 652.7034759783504 387.8744715997147
s 4.690695312967906 -5.506468410875368 10.197163723843275 -5.506468410875368
S 673.0978034260369 368.70380379888934 673.0978034260369 387.8744715997147
z" fill="none" stroke="none"></path>
<circle cx="0" cy="0" r="7.347995338285803" fill="#e0ff77" opacity="0.9">
  <animateMotion begin="-8.497032317899741s" dur="14.280000000000001s" repeatCount="indefinite">
    <mpath xlink:href="#path6"></mpath>
  </animateMotion>
</circle><path id="path7" d="M 1446.0171623293886 341.2719489774581
c 0 35.781933312366355 -8.755153895579001 10.277789355679698 -19.032943251258697 10.277789355679698
S 1407.951275826871 377.05388228982446 1407.951275826871 341.2719489774581
s 8.755153895579001 -10.277789355679698 19.032943251258697 -10.277789355679698
S 1446.0171623293886 305.4900156650918 1446.0171623293886 341.2719489774581
z" fill="none" stroke="none"></path>
<circle cx="0" cy="0" r="5.720367711506285" fill="#de9dd6" opacity="0.9">
  <animateMotion begin="-4.100016365762784s" dur="14.280000000000001s" repeatCount="indefinite">
    <mpath xlink:href="#path7"></mpath>
  </animateMotion>
</circle><path id="path8" d="M 1292.7866892074924 748.6768945413405
c 0 27.26621454691582 -6.6715205806283375 7.831785029433267 -14.503305610061606 7.831785029433267
S 1263.780077987369 775.9431090882563 1263.780077987369 748.6768945413405
s 6.6715205806283375 -7.831785029433267 14.503305610061606 -7.831785029433267
S 1292.7866892074924 721.4106799944248 1292.7866892074924 748.6768945413405
z" fill="none" stroke="none"></path>
<circle cx="0" cy="0" r="7.115707252157139" fill="#9df871" opacity="0.9">
  <animateMotion begin="-9.730408062364045s" dur="14.280000000000001s" repeatCount="indefinite">
    <mpath xlink:href="#path8"></mpath>
  </animateMotion>
</circle><path id="path9" d="M 1884.646803811572 175.9640497797998
c 0 30.801158266191422 -7.536453618323432 8.847141204118813 -16.383594822442245 8.847141204118813
S 1851.8796141666874 206.76520804599124 1851.8796141666874 175.9640497797998
s 7.536453618323432 -8.847141204118813 16.383594822442245 -8.847141204118813
S 1884.646803811572 145.16289151360837 1884.646803811572 175.9640497797998
z" fill="none" stroke="none"></path>
<circle cx="0" cy="0" r="6.554055782459186" fill="#ff708e" opacity="0.9">
  <animateMotion begin="-2.8016593582632736s" dur="14.280000000000001s" repeatCount="indefinite">
    <mpath xlink:href="#path9"></mpath>
  </animateMotion>
</circle><path id="path10" d="M 1647.4730690569436 615.7872981708502
c 0 29.600973689257664 -7.242791434605598 8.502407336276137 -15.745198770881736 8.502407336276137
S 1615.9826715151803 645.3882718601079 1615.9826715151803 615.7872981708502
s 7.242791434605598 -8.502407336276137 15.745198770881736 -8.502407336276137
S 1647.4730690569436 586.1863244815926 1647.4730690569436 615.7872981708502
z" fill="none" stroke="none"></path>
<circle cx="0" cy="0" r="6.403702474310732" fill="#ff708e" opacity="0.9">
  <animateMotion begin="-7.0394294236323205s" dur="14.280000000000001s" repeatCount="indefinite">
    <mpath xlink:href="#path10"></mpath>
  </animateMotion>
</circle><path id="path11" d="M 305.64616098032997 101.8390075749361
c 0 21.722648854062587 -5.315116208972761 6.23948424531585 -11.554600454288611 6.23948424531585
S 282.53696007175273 123.56165642899869 282.53696007175273 101.8390075749361
s 5.315116208972761 -6.23948424531585 11.554600454288611 -6.23948424531585
S 305.64616098032997 80.11635872087352 305.64616098032997 101.8390075749361
z" fill="none" stroke="none"></path>
<circle cx="0" cy="0" r="4.090787340056321" fill="#e0ff77" opacity="0.9">
  <animateMotion begin="-2.4534694934619146s" dur="14.280000000000001s" repeatCount="indefinite">
    <mpath xlink:href="#path11"></mpath>
  </animateMotion>
</circle><path id="path12" d="M 930.3974590606329 305.4871999877342
c 0 29.184716837110567 -7.140941353761096 8.38284419789346 -15.523785551654557 8.38284419789346
S 899.3498879573237 334.67191682484474 899.3498879573237 305.4871999877342
s 7.140941353761096 -8.38284419789346 15.523785551654557 -8.38284419789346
S 930.3974590606329 276.30248315062363 930.3974590606329 305.4871999877342
z" fill="none" stroke="none"></path>
<circle cx="0" cy="0" r="5.717060029493037" fill="#51cacc" opacity="0.9">
  <animateMotion begin="-7.7506363577323345s" dur="14.280000000000001s" repeatCount="indefinite">
    <mpath xlink:href="#path12"></mpath>
  </animateMotion>
</circle><path id="path13" d="M 1438.9898950267138 712.2447060470608
c 0 23.133342341584633 -5.660285892089857 6.644683438540268 -12.304969330630124 6.644683438540268
S 1414.3799563654534 735.3780483886454 1414.3799563654534 712.2447060470608
s 5.660285892089857 -6.644683438540268 12.304969330630124 -6.644683438540268
S 1438.9898950267138 689.1113637054763 1438.9898950267138 712.2447060470608
z" fill="none" stroke="none"></path>
<circle cx="0" cy="0" r="6.852253877238964" fill="#ff708e" opacity="0.9">
  <animateMotion begin="-5.1457168935140105s" dur="14.280000000000001s" repeatCount="indefinite">
    <mpath xlink:href="#path13"></mpath>
  </animateMotion>
</circle><path id="path14" d="M 1180.7547455653378 298.8671791854723
c 0 29.415346583793934 -7.197372036460217 8.449088912366342 -15.64646094882656 8.449088912366342
S 1149.4618236676845 328.2825257692663 1149.4618236676845 298.8671791854723
s 7.197372036460217 -8.449088912366342 15.64646094882656 -8.449088912366342
S 1180.7547455653378 269.45183260167835 1180.7547455653378 298.8671791854723
z" fill="none" stroke="none"></path>
<circle cx="0" cy="0" r="5.528659664211158" fill="#e0ff77" opacity="0.9">
  <animateMotion begin="-3.7235561125732093s" dur="14.280000000000001s" repeatCount="indefinite">
    <mpath xlink:href="#path14"></mpath>
  </animateMotion>
</circle><path id="path15" d="M 1758.0634853661359 87.39908809318479
c 0 21.43213977916817 -5.244034201285829 6.156040149335539 -11.400074350621367 6.156040149335539
S 1735.263336664893 108.83122787235295 1735.263336664893 87.39908809318479
s 5.244034201285829 -6.156040149335539 11.400074350621367 -6.156040149335539
S 1758.0634853661359 65.96694831401662 1758.0634853661359 87.39908809318479
z" fill="none" stroke="none"></path>
<circle cx="0" cy="0" r="4.763827049827302" fill="#e0ff77" opacity="0.9">
  <animateMotion begin="-2.193373625633869s" dur="14.280000000000001s" repeatCount="indefinite">
    <mpath xlink:href="#path15"></mpath>
  </animateMotion>
</circle><path id="path16" d="M 1641.8869717039408 818.9338433745602
c 0 28.443825391939903 -6.959659404410827 8.170034953004015 -15.129694357414841 8.170034953004015
S 1611.6275829891113 847.3776687665 1611.6275829891113 818.9338433745602
s 6.959659404410827 -8.170034953004015 15.129694357414841 -8.170034953004015
S 1641.8869717039408 790.4900179826203 1641.8869717039408 818.9338433745602
z" fill="none" stroke="none"></path>
<circle cx="0" cy="0" r="6.047374059367126" fill="#51cacc" opacity="0.9">
  <animateMotion begin="-0.6256671433104105s" dur="14.280000000000001s" repeatCount="indefinite">
    <mpath xlink:href="#path16"></mpath>
  </animateMotion>
</circle><path id="path17" d="M 2128.861545353128 522.8275919839151
c 0 37.51531571952192 -9.179279378180894 10.775675791777573 -19.954955169958467 10.775675791777573
S 2088.951635013211 560.342907703437 2088.951635013211 522.8275919839151
s 9.179279378180894 -10.775675791777573 19.954955169958467 -10.775675791777573
S 2128.861545353128 485.3122762643932 2128.861545353128 522.8275919839151
z" fill="none" stroke="none"></path>
<circle cx="0" cy="0" r="5.5174277455622915" fill="#ff708e" opacity="0.9">
  <animateMotion begin="-9.434085229158324s" dur="14.280000000000001s" repeatCount="indefinite">
    <mpath xlink:href="#path17"></mpath>
  </animateMotion>
</circle><path id="path18" d="M 2044.6899478238238 127.94114698379998
c 0 25.876315515715586 -6.331438902781472 7.432558711960859 -13.763997614742332 7.432558711960859
S 2017.1619525943393 153.81746249951556 2017.1619525943393 127.94114698379998
s 6.331438902781472 -7.432558711960859 13.763997614742332 -7.432558711960859
S 2044.6899478238238 102.06483146808439 2044.6899478238238 127.94114698379998
z" fill="none" stroke="none"></path>
<circle cx="0" cy="0" r="7.392017383658118" fill="#de9dd6" opacity="0.9">
  <animateMotion begin="-9.517184504222374s" dur="14.280000000000001s" repeatCount="indefinite">
    <mpath xlink:href="#path18"></mpath>
  </animateMotion>
</circle><path id="path19" d="M 656.2654903392325 214.65839779102464
c 0 31.129984926848312 -7.6169112055054375 8.941591415158557 -16.558502620663994 8.941591415158557
S 623.1484850979047 245.78838271787296 623.1484850979047 214.65839779102464
s 7.6169112055054375 -8.941591415158557 16.558502620663994 -8.941591415158557
S 656.2654903392325 183.52841286417632 656.2654903392325 214.65839779102464
z" fill="none" stroke="none"></path>
<circle cx="0" cy="0" r="6.719747822653094" fill="#e0ff77" opacity="0.9">
  <animateMotion begin="-0.9364321186156879s" dur="14.280000000000001s" repeatCount="indefinite">
    <mpath xlink:href="#path19"></mpath>
  </animateMotion>
</circle><path id="path20" d="M 1761.6589960132076 609.1401751992637
c 0 36.871675689226606 -9.021792987789489 10.590800463926792 -19.61259345171628 10.590800463926792
S 1722.433809109775 646.0118508884902 1722.433809109775 609.1401751992637
s 9.021792987789489 -10.590800463926792 19.61259345171628 -10.590800463926792
S 1761.6589960132076 572.2684995100371 1761.6589960132076 609.1401751992637
z" fill="none" stroke="none"></path>
<circle cx="0" cy="0" r="5.544064196092538" fill="#ff708e" opacity="0.9">
  <animateMotion begin="-13.820490022892338s" dur="14.280000000000001s" repeatCount="indefinite">
    <mpath xlink:href="#path20"></mpath>
  </animateMotion>
</circle><path id="path21" d="M 1463.4880563050183 140.47922289994136
c 0 31.190842935236134 -7.63180199479182 8.959071906929529 -16.59087390172135 8.959071906929529
S 1430.3063085015756 171.6700658351775 1430.3063085015756 140.47922289994136
s 7.63180199479182 -8.959071906929529 16.59087390172135 -8.959071906929529
S 1463.4880563050183 109.28837996470523 1463.4880563050183 140.47922289994136
z" fill="none" stroke="none"></path>
<circle cx="0" cy="0" r="6.338856773701988" fill="#9df871" opacity="0.9">
  <animateMotion begin="-3.0967730606319392s" dur="14.280000000000001s" repeatCount="indefinite">
    <mpath xlink:href="#path21"></mpath>
  </animateMotion>
</circle><path id="path22" d="M 854.4970886016788 132.15828075663353
c 0 31.133306344768428 -7.61772389286887 8.942545439454761 -16.56026933232363 8.942545439454761
S 821.3765499370315 163.29158710140194 821.3765499370315 132.15828075663353
s 7.61772389286887 -8.942545439454761 16.56026933232363 -8.942545439454761
S 854.4970886016788 101.0249744118651 854.4970886016788 132.15828075663353
z" fill="none" stroke="none"></path>
<circle cx="0" cy="0" r="4.943801454529623" fill="#51cacc" opacity="0.9">
  <animateMotion begin="-6.022286566754203s" dur="14.280000000000001s" repeatCount="indefinite">
    <mpath xlink:href="#path22"></mpath>
  </animateMotion>
</circle><path id="path23" d="M 911.6089996703816 38.13828358713595
c 0 26.877338879766338 -6.576370151432188 7.720086699507353 -14.29645685093954 7.720086699507353
S 883.0160859685026 65.01562246690229 883.0160859685026 38.13828358713595
s 6.576370151432188 -7.720086699507353 14.29645685093954 -7.720086699507353
S 911.6089996703816 11.260944707369614 911.6089996703816 38.13828358713595
z" fill="none" stroke="none"></path>
<circle cx="0" cy="0" r="5.99282259091801" fill="#9df871" opacity="0.9">
  <animateMotion begin="-1.7039760543281088s" dur="14.280000000000001s" repeatCount="indefinite">
    <mpath xlink:href="#path23"></mpath>
  </animateMotion>
</circle><path id="path24" d="M 1668.2477065715848 625.9897012761146
c 0 33.237307764579384 -8.132532750907721 9.546886272804716 -17.679419023712438 9.546886272804716
S 1632.88886852416 659.2270090406939 1632.88886852416 625.9897012761146
s 8.132532750907721 -9.546886272804716 17.679419023712438 -9.546886272804716
S 1668.2477065715848 592.7523935115353 1668.2477065715848 625.9897012761146
z" fill="none" stroke="none"></path>
<circle cx="0" cy="0" r="6.69854250197552" fill="#ff708e" opacity="0.9">
  <animateMotion begin="-10.560393346919613s" dur="14.280000000000001s" repeatCount="indefinite">
    <mpath xlink:href="#path24"></mpath>
  </animateMotion>
</circle><path id="path25" d="M 2015.8354701396643 526.3022475474662
c 0 19.038428900901046 -4.658338986390681 5.468484897067322 -10.126823883458002 5.468484897067322
S 1995.5818223727483 545.3406764483673 1995.5818223727483 526.3022475474662
s 4.658338986390681 -5.468484897067322 10.126823883458002 -5.468484897067322
S 2015.8354701396643 507.26381864656514 2015.8354701396643 526.3022475474662
z" fill="none" stroke="none"></path>
<circle cx="0" cy="0" r="6.538817251763749" fill="#de9dd6" opacity="0.9">
  <animateMotion begin="-3.279872580984996s" dur="14.280000000000001s" repeatCount="indefinite">
    <mpath xlink:href="#path25"></mpath>
  </animateMotion>
</circle><path id="path26" d="M 925.2641962300137 244.78549324310453
c 0 37.20878944083733 -9.10427826743892 10.687631009602212 -19.791909277041132 10.687631009602212
S 885.6803776759315 281.99428268394183 885.6803776759315 244.78549324310453
s 9.10427826743892 -10.687631009602212 19.791909277041132 -10.687631009602212
S 925.2641962300137 207.5767038022672 925.2641962300137 244.78549324310453
z" fill="none" stroke="none"></path>
<circle cx="0" cy="0" r="6.240414986409416" fill="#9df871" opacity="0.9">
  <animateMotion begin="-5.982245023119622s" dur="14.280000000000001s" repeatCount="indefinite">
    <mpath xlink:href="#path26"></mpath>
  </animateMotion>
</circle><path id="path27" d="M 1874.1804601977676 893.3968460988219
c 0 25.033356312931602 -6.1251829276322 7.190432132437801 -13.315615060070002 7.190432132437801
S 1847.5492300776275 918.4302024117535 1847.5492300776275 893.3968460988219
s 6.1251829276322 -7.190432132437801 13.315615060070002 -7.190432132437801
S 1874.1804601977676 868.3634897858904 1874.1804601977676 893.3968460988219
z" fill="none" stroke="none"></path>
<circle cx="0" cy="0" r="4.936773727629578" fill="#ff708e" opacity="0.9">
  <animateMotion begin="-2.468323779545045s" dur="14.280000000000001s" repeatCount="indefinite">
    <mpath xlink:href="#path27"></mpath>
  </animateMotion>
</circle><path id="path28" d="M 578.6130368833669 829.0333639806867
c 0 31.506974194963274 -7.709153260469737 9.049875566638388 -16.759028827108125 9.049875566638388
S 545.0949792291508 860.5403381756499 545.0949792291508 829.0333639806867
s 7.709153260469737 -9.049875566638388 16.759028827108125 -9.049875566638388
S 578.6130368833669 797.5263897857234 578.6130368833669 829.0333639806867
z" fill="none" stroke="none"></path>
<circle cx="0" cy="0" r="5.541137533345413" fill="#de9dd6" opacity="0.9">
  <animateMotion begin="-5.564327457652345s" dur="14.280000000000001s" repeatCount="indefinite">
    <mpath xlink:href="#path28"></mpath>
  </animateMotion>
</circle><path id="path29" d="M 744.4174132199371 898.3776424010584
c 0 21.34696141315483 -5.223192686197457 6.131574022927451 -11.354766709124908 6.131574022927451
S 721.7078798016873 919.7246038142133 721.7078798016873 898.3776424010584
s 5.223192686197457 -6.131574022927451 11.354766709124908 -6.131574022927451
S 744.4174132199371 877.0306809879036 744.4174132199371 898.3776424010584
z" fill="none" stroke="none"></path>
<circle cx="0" cy="0" r="3.9710284267669254" fill="#51cacc" opacity="0.9">
  <animateMotion begin="-9.05433297763132s" dur="14.280000000000001s" repeatCount="indefinite">
    <mpath xlink:href="#path29"></mpath>
  </animateMotion>
</circle><path id="path30" d="M 1495.3775589600973 773.743873010372
c 0 28.437872795281812 -6.958202917994486 8.168325164602223 -15.126528082596709 8.168325164602223
S 1465.124502794904 802.1817458056538 1465.124502794904 773.743873010372
s 6.958202917994486 -8.168325164602223 15.126528082596709 -8.168325164602223
S 1495.3775589600973 745.3060002150902 1495.3775589600973 773.743873010372
z" fill="none" stroke="none"></path>
<circle cx="0" cy="0" r="6.870446135591075" fill="#e0ff77" opacity="0.9">
  <animateMotion begin="-7.597492009295223s" dur="14.280000000000001s" repeatCount="indefinite">
    <mpath xlink:href="#path30"></mpath>
  </animateMotion>
</circle><path id="path31" d="M 1026.2642342470913 354.914158735733
c 0 25.935399091613398 -6.345895522416043 7.449529526314486 -13.795425048730529 7.449529526314486
S 998.6733841496302 380.8495578273464 998.6733841496302 354.914158735733
s 6.345895522416043 -7.449529526314486 13.795425048730529 -7.449529526314486
S 1026.2642342470913 328.9787596441196 1026.2642342470913 354.914158735733
z" fill="none" stroke="none"></path>
<circle cx="0" cy="0" r="5.104603462288341" fill="#e0ff77" opacity="0.9">
  <animateMotion begin="-3.65557560737615s" dur="14.280000000000001s" repeatCount="indefinite">
    <mpath xlink:href="#path31"></mpath>
  </animateMotion>
</circle><path id="path32" d="M 1854.1140432222373 554.0747296132631
c 0 25.18813106558463 -6.163053345834537 7.234888710327501 -13.397942056162037 7.234888710327501
S 1827.3181591099133 579.2628606788478 1827.3181591099133 554.0747296132631
s 6.163053345834537 -7.234888710327501 13.397942056162037 -7.234888710327501
S 1854.1140432222373 528.8865985476784 1854.1140432222373 554.0747296132631
z" fill="none" stroke="none"></path>
<circle cx="0" cy="0" r="4.94019240982513" fill="#9df871" opacity="0.9">
  <animateMotion begin="-0.795249301337741s" dur="14.280000000000001s" repeatCount="indefinite">
    <mpath xlink:href="#path32"></mpath>
  </animateMotion>
</circle><path id="path33" d="M 437.31610161528687 645.8077110130897
c 0 34.22069531729067 -8.373148854230696 9.82934865496647 -18.202497509197165 9.82934865496647
S 400.9111065968926 680.0284063303803 400.9111065968926 645.8077110130897
s 8.373148854230696 -9.82934865496647 18.202497509197165 -9.82934865496647
S 437.31610161528687 611.5870156957991 437.31610161528687 645.8077110130897
z" fill="none" stroke="none"></path>
<circle cx="0" cy="0" r="5.866076488817347" fill="#51cacc" opacity="0.9">
  <animateMotion begin="-5.610114595978354s" dur="14.280000000000001s" repeatCount="indefinite">
    <mpath xlink:href="#path33"></mpath>
  </animateMotion>
</circle><path id="path34" d="M 642.6810722449055 814.5202450386158
c 0 23.71256251874521 -5.802009977990848 6.811055191554475 -12.613065169545322 6.811055191554475
S 617.454941905815 838.2328075573611 617.454941905815 814.5202450386158
s 5.802009977990848 -6.811055191554475 12.613065169545322 -6.811055191554475
S 642.6810722449055 790.8076825198706 642.6810722449055 814.5202450386158
z" fill="none" stroke="none"></path>
<circle cx="0" cy="0" r="5.9711352392241634" fill="#ff708e" opacity="0.9">
  <animateMotion begin="-4.870483743854347s" dur="14.280000000000001s" repeatCount="indefinite">
    <mpath xlink:href="#path34"></mpath>
  </animateMotion>
</circle><path id="path35" d="M 302.3958362649506 627.3329073786084
c 0 28.00477614056547 -6.852232459925593 8.043925061651784 -14.896157521577376 8.043925061651784
S 272.60352122179586 655.3376835191739 272.60352122179586 627.3329073786084
s 6.852232459925593 -8.043925061651784 14.896157521577376 -8.043925061651784
S 302.3958362649506 599.3281312380429 302.3958362649506 627.3329073786084
z" fill="none" stroke="none"></path>
<circle cx="0" cy="0" r="4.032881276825514" fill="#ff708e" opacity="0.9">
  <animateMotion begin="-1.3289183437830194s" dur="14.280000000000001s" repeatCount="indefinite">
    <mpath xlink:href="#path35"></mpath>
  </animateMotion>
</circle><path id="path36" d="M 1629.3590003707993 497.84784092023284
c 0 34.699028474868626 -8.490187818318917 9.966742221504818 -18.456930039823735 9.966742221504818
S 1592.445140291152 532.5468693951015 1592.445140291152 497.84784092023284
s 8.490187818318917 -9.966742221504818 18.456930039823735 -9.966742221504818
S 1629.3590003707993 463.14881244536423 1629.3590003707993 497.84784092023284
z" fill="none" stroke="none"></path>
<circle cx="0" cy="0" r="7.415665733373185" fill="#9df871" opacity="0.9">
  <animateMotion begin="-13.924908275307782s" dur="14.280000000000001s" repeatCount="indefinite">
    <mpath xlink:href="#path36"></mpath>
  </animateMotion>
</circle><path id="path37" d="M 1402.2393208442945 163.45895469827857
c 0 25.70083584536337 -6.288502387695292 7.382154976859692 -13.670657364554984 7.382154976859692
S 1374.8980061151847 189.15979054364195 1374.8980061151847 163.45895469827857
s 6.288502387695292 -7.382154976859692 13.670657364554984 -7.382154976859692
S 1402.2393208442945 137.7581188529152 1402.2393208442945 163.45895469827857
z" fill="none" stroke="none"></path>
<circle cx="0" cy="0" r="6.0034862787016" fill="#9df871" opacity="0.9">
  <animateMotion begin="-13.897221373945625s" dur="14.280000000000001s" repeatCount="indefinite">
    <mpath xlink:href="#path37"></mpath>
  </animateMotion>
</circle><path id="path38" d="M 109.33493506378821 684.9173682738774
c 0 32.59321166794253 -7.974934769815726 9.361879947174984 -17.33681471699071 9.361879947174984
S 74.6613056298068 717.51057994182 74.6613056298068 684.9173682738774
s 7.974934769815726 -9.361879947174984 17.33681471699071 -9.361879947174984
S 109.33493506378821 652.3241566059348 109.33493506378821 684.9173682738774
z" fill="none" stroke="none"></path>
<circle cx="0" cy="0" r="5.49532999649555" fill="#e0ff77" opacity="0.9">
  <animateMotion begin="-6.624377078827202s" dur="14.280000000000001s" repeatCount="indefinite">
    <mpath xlink:href="#path38"></mpath>
  </animateMotion>
</circle><path id="path39" d="M 2107.0677242119154 601.8710011798817
c 0 20.954510837447877 -5.127167545332991 6.018848857564816 -11.146016402897807 6.018848857564816
S 2084.77569140612 622.8255120173295 2084.77569140612 601.8710011798817
s 5.127167545332991 -6.018848857564816 11.146016402897807 -6.018848857564816
S 2107.0677242119154 580.9164903424338 2107.0677242119154 601.8710011798817
z" fill="none" stroke="none"></path>
<circle cx="0" cy="0" r="6.422982446222083" fill="#ff708e" opacity="0.9">
  <animateMotion begin="-10.890714742810365s" dur="14.280000000000001s" repeatCount="indefinite">
    <mpath xlink:href="#path39"></mpath>
  </animateMotion>
</circle><path id="path40" d="M 95.30592058354362 643.2997366248139
c 0 36.8279209986934 -9.011087052871789 10.578232627284274 -19.589319680156063 10.578232627284274
S 56.12728122323149 680.1276576235073 56.12728122323149 643.2997366248139
s 9.011087052871789 -10.578232627284274 19.589319680156063 -10.578232627284274
S 95.30592058354362 606.4718156261206 95.30592058354362 643.2997366248139
z" fill="none" stroke="none"></path>
<circle cx="0" cy="0" r="6.570839992145497" fill="#51cacc" opacity="0.9">
  <animateMotion begin="-7.297057109728589s" dur="14.280000000000001s" repeatCount="indefinite">
    <mpath xlink:href="#path40"></mpath>
  </animateMotion>
</circle><path id="path41" d="M 188.2514395594467 411.3703312004415
c 0 21.67720786613808 -5.30399766937421 6.226432046656682 -11.530429716030891 6.226432046656682
S 165.19058012738495 433.0475390665796 165.19058012738495 411.3703312004415
s 5.30399766937421 -6.226432046656682 11.530429716030891 -6.226432046656682
S 188.2514395594467 389.69312333430344 188.2514395594467 411.3703312004415
z" fill="none" stroke="none"></path>
<circle cx="0" cy="0" r="6.118451922044891" fill="#9df871" opacity="0.9">
  <animateMotion begin="-0.43155806537734626s" dur="14.280000000000001s" repeatCount="indefinite">
    <mpath xlink:href="#path41"></mpath>
  </animateMotion>
</circle><path id="path42" d="M 360.52761731601385 562.2074778333799
c 0 19.166584952930897 -4.689696318270326 5.505295677969514 -10.194991996239839 5.505295677969514
S 340.1376333235342 581.3740627863108 340.1376333235342 562.2074778333799
s 4.689696318270326 -5.505295677969514 10.194991996239839 -5.505295677969514
S 360.52761731601385 543.0408928804491 360.52761731601385 562.2074778333799
z" fill="none" stroke="none"></path>
<circle cx="0" cy="0" r="4.038178511366639" fill="#e0ff77" opacity="0.9">
  <animateMotion begin="-5.333984845753512s" dur="14.280000000000001s" repeatCount="indefinite">
    <mpath xlink:href="#path42"></mpath>
  </animateMotion>
</circle><path id="path43" d="M 1886.2791726661646 652.1443261031848
c 0 25.574831861627715 -6.257671625717419 7.345962343233493 -13.603633968950913 7.345962343233493
S 1859.071904728263 677.7191579648124 1859.071904728263 652.1443261031848
s 6.257671625717419 -7.345962343233493 13.603633968950913 -7.345962343233493
S 1886.2791726661646 626.5694942415571 1886.2791726661646 652.1443261031848
z" fill="none" stroke="none"></path>
<circle cx="0" cy="0" r="6.253809847079952" fill="#de9dd6" opacity="0.9">
  <animateMotion begin="-9.065967794989664s" dur="14.280000000000001s" repeatCount="indefinite">
    <mpath xlink:href="#path43"></mpath>
  </animateMotion>
</circle><path id="path44" d="M 2149.991424936083 474.86327476689166
c 0 20.68081020086447 -5.0601982406370505 5.940232717269582 -11.000430957906634 5.940232717269582
S 2127.9905630202697 495.54408496775613 2127.9905630202697 474.86327476689166
s 5.0601982406370505 -5.940232717269582 11.000430957906634 -5.940232717269582
S 2149.991424936083 454.1824645660272 2149.991424936083 474.86327476689166
z" fill="none" stroke="none"></path>
<circle cx="0" cy="0" r="6.971098444113045" fill="#e0ff77" opacity="0.9">
  <animateMotion begin="-2.190039430414418s" dur="14.280000000000001s" repeatCount="indefinite">
    <mpath xlink:href="#path44"></mpath>
  </animateMotion>
</circle><path id="path45" d="M 432.297572219442 269.59276017281644
c 0 36.23181357235498 -8.865230980469835 10.407010281421112 -19.272241261890947 10.407010281421112
S 393.7530896956601 305.8245737451714 393.7530896956601 269.59276017281644
s 8.865230980469835 -10.407010281421112 19.272241261890947 -10.407010281421112
S 432.297572219442 233.36094660046146 432.297572219442 269.59276017281644
z" fill="none" stroke="none"></path>
<circle cx="0" cy="0" r="6.990111469478088" fill="#9df871" opacity="0.9">
  <animateMotion begin="-8.14223237498837s" dur="14.280000000000001s" repeatCount="indefinite">
    <mpath xlink:href="#path45"></mpath>
  </animateMotion>
</circle><path id="path46" d="M 1013.1553015920595 632.6782437206377
c 0 25.634401798998724 -6.272247248691176 7.3630728571592075 -13.635320105850383 7.3630728571592075
S 985.8846613803587 658.3126455196365 985.8846613803587 632.6782437206377
s 6.272247248691176 -7.3630728571592075 13.635320105850383 -7.3630728571592075
S 1013.1553015920595 607.043841921639 1013.1553015920595 632.6782437206377
z" fill="none" stroke="none"></path>
<circle cx="0" cy="0" r="7.168011554968717" fill="#ff708e" opacity="0.9">
  <animateMotion begin="-0.6718259893691902s" dur="14.280000000000001s" repeatCount="indefinite">
    <mpath xlink:href="#path46"></mpath>
  </animateMotion>
</circle><path id="path47" d="M 656.1612065675586 202.07644876357733
c 0 37.520557812120515 -9.180562017859273 10.777181499226105 -19.957743517085376 10.777181499226105
S 616.2457195333877 239.59700657569783 616.2457195333877 202.07644876357733
s 9.180562017859273 -10.777181499226105 19.957743517085376 -10.777181499226105
S 656.1612065675586 164.55589095145683 656.1612065675586 202.07644876357733
z" fill="none" stroke="none"></path>
<circle cx="0" cy="0" r="5.335791218170579" fill="#9df871" opacity="0.9">
  <animateMotion begin="-0.8921876074585512s" dur="14.280000000000001s" repeatCount="indefinite">
    <mpath xlink:href="#path47"></mpath>
  </animateMotion>
</circle><path id="path48" d="M 1957.7555108228153 329.0273730264472
c 0 31.318803655648114 -7.6631115327649635 8.995826581941479 -16.658938114706444 8.995826581941479
S 1924.4376345934024 360.34617668209535 1924.4376345934024 329.0273730264472
s 7.6631115327649635 -8.995826581941479 16.658938114706444 -8.995826581941479
S 1957.7555108228153 297.70856937079907 1957.7555108228153 329.0273730264472
z" fill="none" stroke="none"></path>
<circle cx="0" cy="0" r="5.787243340522463" fill="#ff708e" opacity="0.9">
  <animateMotion begin="-6.583160900042135s" dur="14.280000000000001s" repeatCount="indefinite">
    <mpath xlink:href="#path48"></mpath>
  </animateMotion>
</circle></g>
</svg>