<svg width="45" height="45" viewBox="0 0 90 90" fill="none" xmlns="http://www.w3.org/2000/svg">
<rect width="90" height="90" rx="9" fill="#FFC42D"/>
<path d="M43.2824 19.1804L80.0382 54.5903L70.5916 65.287L61.145 75.9837L25.0763 40.9427L19.2972 23.9755L16.145 15.123L25.0763 16.4584L43.2824 19.1804Z" fill="#FFC42D"/>
<path d="M25.0763 40.9427L61.145 75.9837L70.5916 65.287M25.0763 40.9427L43.2824 19.1804M25.0763 40.9427L19.2972 23.9755M43.2824 19.1804L80.0382 54.5903L70.5916 65.287M43.2824 19.1804L25.0763 16.4584M40.5343 36.8853L70.5916 65.287M19.2972 23.9755L16.145 15.123L25.0763 16.4584M19.2972 23.9755L25.0763 16.4584" stroke="white" stroke-width="4"/>
</svg>
